<?xml version="1.0" encoding="UTF-8"?>
<svg width="212px" height="212px" viewBox="0 0 212 212" version="1.1" xmlns="http://www.w3.org/2000/svg" xmlns:xlink="http://www.w3.org/1999/xlink">
    <title>LEAP</title>
    <g id="Page-1" stroke="none" stroke-width="1" fill="none" fill-rule="evenodd">
        <g id="LEAP" transform="translate(26, 57)">
            <rect id="Rectangle" stroke="#00CB96" stroke-width="12" fill="#000000" stroke-linejoin="round" x="-20" y="-51" width="200" height="200" rx="20"></rect>
            <g id="Group" transform="translate(5.2812, 16.4297)" fill="#FFFFFF" fill-rule="nonzero">
                <polygon id="Path" points="37.1545548 1.30501535 37.1545548 63.4467758 20.9953941 63.4467758 20.9953941 37.3464688 16.1591607 37.3464688 16.1591607 63.4467758 0 63.4467758 0 1.30501535 16.1591607 1.30501535 16.1591607 23.5286592 20.9953941 23.5286592 20.9953941 1.30501535"></polygon>
                <path d="M71.5455476,1.30501535 L80.7958035,63.4467758 L64.2528147,63.4467758 L63.4467758,52.2773797 L57.6509724,52.2773797 L56.6914023,63.4467758 L39.9564995,63.4467758 L48.1704197,1.30501535 L71.5455476,1.30501535 Z M62.9861822,41.2615148 C62.167349,34.2246673 61.3485159,25.5373593 60.5296827,15.1995906 C58.8920164,27.0726714 57.8684749,35.7599795 57.4590583,41.2615148 L62.9861822,41.2615148 Z" id="Shape"></path>
                <polygon id="Path" points="99.7185261 1.30501535 99.7185261 51.0107472 109.544524 51.0107472 109.544524 63.4467758 83.5593654 63.4467758 83.5593654 1.30501535"></polygon>
                <path d="M150,28.4032753 L133.840839,28.4032753 L133.840839,17.5793245 C133.840839,14.4319345 133.668117,12.4680143 133.322671,11.687564 C132.977226,10.9071136 132.215967,10.5168884 131.038895,10.5168884 C129.708291,10.5168884 128.863869,10.9902764 128.505629,11.9370522 C128.14739,12.883828 127.96827,14.930911 127.96827,18.0783009 L127.96827,46.9421699 C127.96827,49.9616172 128.14739,51.9319345 128.505629,52.8531218 C128.863869,53.7743091 129.669908,54.2349028 130.923746,54.2349028 C132.126407,54.2349028 132.913255,53.7743091 133.284289,52.8531218 C133.655322,51.9319345 133.840839,49.7697032 133.840839,46.3664278 L133.840839,38.5747185 L150,38.5747185 L150,40.9928352 C150,47.4155578 149.545803,51.9703173 148.63741,54.6571136 C147.729017,57.3439099 145.720317,59.6980553 142.61131,61.7195496 C139.502303,63.741044 135.67042,64.7517912 131.11566,64.7517912 C126.381781,64.7517912 122.479529,63.8945752 119.408905,62.1801433 C116.33828,60.4657114 114.303992,58.0923746 113.306039,55.0601331 C112.308086,52.0278915 111.80911,47.4667349 111.80911,41.3766633 L111.80911,23.2215967 C111.80911,18.7436029 111.962641,15.3851075 112.269703,13.1461105 C112.576766,10.9071136 113.491556,8.75127943 115.014074,6.67860798 C116.536592,4.60593654 118.647646,2.97466735 121.347236,1.78480041 C124.046827,0.59493347 127.149437,0 130.655067,0 C135.414534,0 139.342375,0.921187308 142.438588,2.76356192 C145.5348,4.60593654 147.569089,6.90250768 148.541453,9.65327533 C149.513818,12.404043 150,16.6837257 150,22.4923234 L150,28.4032753 Z" id="Path"></path>
            </g>
        </g>
    </g>
</svg>